<svg width="20" height="20" viewBox="0 0 20 20" fill="none" xmlns="http://www.w3.org/2000/svg">
<path d="M16.6667 11.6667V10H3.33337V11.6667C3.33337 12.615 3.81921 14.3733 5.62087 14.8675C5.92921 14.9525 6.27671 15 6.66671 15H13.3334C13.6864 15.0031 14.0381 14.9585 14.3792 14.8675C16.1809 14.3733 16.6667 12.615 16.6667 11.6667Z" fill="black"/>
<path d="M2.5 9.99992H3.33333M16.6667 9.99992C16.8877 9.99992 17.0996 9.91212 17.2559 9.75584C17.4122 9.59956 17.5 9.3876 17.5 9.16659V5.83325C17.5 4.99992 17 3.33325 15 3.33325C13 3.33325 12.5 4.99992 12.5 5.83325M16.6667 9.99992V11.6666C16.6667 12.6149 16.1808 14.3733 14.3792 14.8674M16.6667 9.99992H3.33333M3.33333 9.99992V11.6666C3.33333 12.6149 3.81917 14.3733 5.62083 14.8674M5 16.6666L5.62083 14.8674M5.62083 14.8674C5.92917 14.9524 6.27667 14.9999 6.66667 14.9999H13.3333C13.6863 15.003 14.0381 14.9584 14.3792 14.8674M15 16.6666L14.3792 14.8674M12.5 5.83325H10.8333M12.5 5.83325H14.1667" stroke="black" stroke-width="2" stroke-linecap="round" stroke-linejoin="round"/>
</svg>
