<svg width="20" height="20" viewBox="0 0 20 20" fill="none" xmlns="http://www.w3.org/2000/svg">
<path d="M9.375 7.5H10.625V6.875C10.625 6.70924 10.6908 6.55027 10.8081 6.43306C10.9253 6.31585 11.0842 6.25 11.25 6.25H13.125C13.2908 6.25 13.4497 6.31585 13.5669 6.43306C13.6842 6.55027 13.75 6.70924 13.75 6.875V7.5H16.25V5C16.25 4.33696 15.9866 3.70107 15.5178 3.23223C15.0489 2.76339 14.413 2.5 13.75 2.5H6.25C5.58696 2.5 4.95107 2.76339 4.48223 3.23223C4.01339 3.70107 3.75 4.33696 3.75 5V7.5H6.25V6.875C6.25 6.70924 6.31585 6.55027 6.43306 6.43306C6.55027 6.31585 6.70924 6.25 6.875 6.25H8.75C8.91576 6.25 9.07473 6.31585 9.19194 6.43306C9.30915 6.55027 9.375 6.70924 9.375 6.875V7.5ZM4.375 8.75C3.5462 8.75 2.75134 9.07924 2.16529 9.66529C1.57924 10.2513 1.25 11.0462 1.25 11.875V16.875C1.25 17.0408 1.31585 17.1997 1.43306 17.3169C1.55027 17.4342 1.70924 17.5 1.875 17.5C2.04076 17.5 2.19973 17.4342 2.31694 17.3169C2.43415 17.1997 2.5 17.0408 2.5 16.875V13.75H17.5V16.875C17.5 17.0408 17.5658 17.1997 17.6831 17.3169C17.8003 17.4342 17.9592 17.5 18.125 17.5C18.2908 17.5 18.4497 17.4342 18.5669 17.3169C18.6842 17.1997 18.75 17.0408 18.75 16.875V11.875C18.75 11.0462 18.4208 10.2513 17.8347 9.66529C17.2487 9.07924 16.4538 8.75 15.625 8.75H4.375Z" fill="black"/>
</svg>
