<svg width="428" height="212" viewBox="0 0 428 212" fill="none" xmlns="http://www.w3.org/2000/svg">
<path d="M48.0625 120.109C47.9843 120.234 47.789 120.266 47.4765 120.203C47.1797 120.125 46.8281 120.086 46.4218 120.086C46.0156 120.086 45.4375 120.172 44.6875 120.344C43.9531 120.5 42.789 120.75 41.1953 121.094C39.6015 121.453 38.1484 121.633 36.8359 121.633C33.8672 121.633 30.9843 120.938 28.1875 119.547C25.4062 118.141 23.1797 116.156 21.5078 113.594C19.8359 111.016 19 108.031 19 104.641C19 101.25 19.8359 98.1797 21.5078 95.4297C23.9453 91.3984 27.6172 88.7734 32.5234 87.5547C34.0859 87.1641 35.6484 86.9688 37.2109 86.9688C39.3515 86.9688 41.8906 87.3281 44.8281 88.0469C45.7187 88.2656 46.4687 88.4922 47.0781 88.7266C47.7031 88.9609 48.0859 89.0781 48.2265 89.0781L48.9297 88.8906H49.6562C49.8437 88.8906 49.9375 89.0234 49.9375 89.2891V96.5781C49.9375 96.7344 49.7968 96.8125 49.5156 96.8125C49.2343 96.8125 49.0703 96.7812 49.0234 96.7188C48.9765 96.6406 48.9297 96.5547 48.8828 96.4609C48.8359 96.3516 48.7812 96.2422 48.7187 96.1328C48.6718 96.0234 48.6172 95.9219 48.5547 95.8281C48.5078 95.7344 48.4765 95.6641 48.4609 95.6172C46.1172 90.9141 42.5625 88.5625 37.7968 88.5625C33.5 88.5625 30.1406 89.9297 27.7187 92.6641C25.2968 95.3984 24.0859 99.0234 24.0859 103.539C24.0859 108.039 25.414 111.906 28.0703 115.141C30.7422 118.375 34.3672 119.992 38.9453 119.992C41.4453 119.992 43.7187 119.25 45.7656 117.766C47.8281 116.281 49.4453 114.461 50.6172 112.305C50.6484 112.211 50.7422 112.164 50.8984 112.164H51.2031C51.3593 112.164 51.4375 112.258 51.4375 112.445C51.4375 112.633 51.3906 112.812 51.2968 112.984L48.0625 120.109ZM95.7109 120.812C95.7109 120.938 95.6484 121 95.5234 121H83.5468C83.4218 121 83.3593 120.938 83.3593 120.812V120.25C83.3593 120.125 83.4609 120.062 83.664 120.062C85.8047 119.969 87.25 118.828 88 116.641L97.5625 88.9609C97.5781 88.9297 97.5859 88.8906 97.5859 88.8438L97.3281 88.0703C97.3281 87.9922 97.3593 87.9531 97.4218 87.9531H102.109C102.141 87.9688 102.18 87.9844 102.227 88C102.289 88.0156 102.336 88.0625 102.367 88.1406L112.281 115.961C112.5 116.383 112.672 116.766 112.797 117.109C112.937 117.453 113.094 117.766 113.266 118.047C113.641 118.688 114.258 119.18 115.117 119.523C115.836 119.883 116.492 120.062 117.086 120.062C117.211 120.062 117.273 120.133 117.273 120.273V120.812C117.273 120.938 117.211 121 117.086 121H102.742C102.617 121 102.555 120.938 102.555 120.812V120.25C102.555 120.125 102.844 120.047 103.422 120.016C104 119.984 104.477 119.953 104.852 119.922C107.023 119.688 108.109 118.953 108.109 117.719C108.109 117.625 108.094 117.516 108.062 117.391L104.523 107.406C104.508 107.375 104.477 107.305 104.43 107.195C104.242 106.664 103.914 106.398 103.445 106.398H95.125C94.6562 106.398 94.289 106.656 94.0234 107.172C93.9765 107.281 93.9531 107.344 93.9531 107.359L90.4375 117.648V117.859C90.4375 118.266 90.6484 118.633 91.0703 118.961C92.0234 119.695 93.3047 120.062 94.914 120.062H95.5234C95.6484 120.062 95.7109 120.125 95.7109 120.25V120.812ZM102.648 103.797C102.93 103.797 103.07 103.68 103.07 103.445C103.07 103.32 103.039 103.18 102.977 103.023L99.4843 93.4141C99.3281 92.9922 99.2109 92.7812 99.1328 92.7812C99.0547 92.7812 98.9297 93 98.7578 93.4375L95.4765 103.023C95.414 103.18 95.3828 103.352 95.3828 103.539C95.3828 103.711 95.5 103.797 95.7343 103.797H102.648ZM147.836 121C147.711 121 147.648 120.938 147.648 120.812V120.25C147.648 120.125 147.758 120.062 147.977 120.062C148.711 120.062 149.523 119.984 150.414 119.828C153.273 119.344 154.703 118.359 154.703 116.875V92.1484C154.547 90.1484 153.633 89.0625 151.961 88.8906C151.461 88.8281 150.906 88.7969 150.297 88.7969H148.961C148.836 88.7969 148.773 88.7344 148.773 88.6094V88.0234C148.773 87.8984 148.836 87.8359 148.961 87.8359L149.992 87.8125L154.023 87.7891L162.367 87.5312C171.305 87.5312 175.773 90.1719 175.773 95.4531C175.773 97.6875 174.617 99.5469 172.305 101.031C171.945 101.266 171.633 101.438 171.367 101.547C171.117 101.656 170.977 101.719 170.945 101.734C173.008 102.891 174.625 104.188 175.797 105.625C176.984 107.062 177.578 108.781 177.578 110.781C177.578 115.047 175.562 118.016 171.531 119.688C169.453 120.562 167.195 121 164.758 121H147.836ZM159.695 102.719C159.492 102.719 159.391 102.805 159.391 102.977V115.82C159.391 116.93 159.906 117.82 160.937 118.492C161.984 119.164 163.109 119.5 164.312 119.5C166.625 119.5 168.594 118.68 170.219 117.039C171.844 115.383 172.656 113.352 172.656 110.945C172.656 108.523 171.781 106.547 170.031 105.016C168.297 103.484 166.094 102.719 163.422 102.719H159.695ZM159.344 100.82C159.344 101.117 159.523 101.266 159.883 101.266H165.648C167.148 101.266 168.406 100.711 169.422 99.6016C170.453 98.4922 170.969 97.25 170.969 95.875C170.969 93.4219 170.273 91.6484 168.883 90.5547C167.492 89.4453 165.641 88.8906 163.328 88.8906C162.625 88.9375 162.133 88.9609 161.852 88.9609C161.586 88.9609 161.305 88.9609 161.008 88.9609C160.711 88.9453 160.414 88.9609 160.117 89.0078C159.82 89.0547 159.617 89.1562 159.508 89.3125C159.398 89.4688 159.344 89.7266 159.344 90.0859V100.82ZM215.945 91.7031C215.945 89.8281 214.867 88.8906 212.711 88.8906C212.367 88.8906 212.195 88.8281 212.195 88.7031V88.1406C212.195 88.0156 212.258 87.9531 212.383 87.9531H224.125C224.25 87.9531 224.312 88.0156 224.312 88.1406V88.7031C224.312 88.8281 223.969 88.8906 223.281 88.8906C222.594 88.8906 221.961 89.1094 221.383 89.5469C220.805 89.9844 220.516 90.8828 220.516 92.2422V117.25C220.516 119.125 221.602 120.062 223.773 120.062C224.102 120.062 224.266 120.125 224.266 120.25V120.812C224.266 120.938 224.203 121 224.078 121H212.336C212.211 121 212.148 120.938 212.148 120.812V120.25C212.148 120.125 212.492 120.062 213.18 120.062C213.867 120.062 214.5 119.844 215.078 119.406C215.656 118.969 215.945 118.07 215.945 116.711V91.7031ZM258.039 121C257.914 121 257.852 120.938 257.852 120.812V120.25C257.852 120.125 257.93 120.062 258.086 120.062H258.625C259.484 120.062 260.07 119.984 260.383 119.828C261.539 119.266 262.117 117.719 262.117 115.188V90.8359C262.117 89.7891 261.102 89.1641 259.07 88.9609C258.617 88.9141 258.297 88.8906 258.109 88.8906C257.937 88.8906 257.852 88.8281 257.852 88.7031V88.1406C257.852 88.0156 257.914 87.9531 258.039 87.9531H266.617L288.859 112.539C288.937 112.617 288.992 112.68 289.023 112.727C289.055 112.758 289.102 112.773 289.164 112.773C289.242 112.773 289.281 112.703 289.281 112.562V96.4141C289.281 93.3047 289.023 91.2734 288.508 90.3203C287.992 89.3672 286.953 88.8906 285.391 88.8906H284.195C284.07 88.8906 284.008 88.8281 284.008 88.7031V88.1406C284.008 88.0156 284.07 87.9531 284.195 87.9531H296.383C296.508 87.9531 296.57 88.0156 296.57 88.1406V88.7031C296.57 88.8281 296.336 88.8906 295.867 88.8906C295.414 88.8906 294.656 89.1562 293.594 89.6875C292.547 90.2188 292.023 90.875 292.023 91.6562V120.32C292.023 120.664 291.977 120.906 291.883 121.047C291.789 121.203 291.562 121.281 291.203 121.281C290.859 121.281 290.602 121.211 290.43 121.07C290.258 120.93 290.055 120.727 289.82 120.461L265.656 93.6719C265.5 93.5156 265.359 93.4375 265.234 93.4375C265.156 93.4375 265.117 93.5156 265.117 93.6719V117.062C265.117 118.484 266.242 119.422 268.492 119.875C269.117 120 269.594 120.062 269.922 120.062C270.25 120.062 270.414 120.125 270.414 120.25V120.812C270.414 120.938 270.352 121 270.227 121H258.039ZM347.195 88.2344C347.352 88.2344 347.43 88.4062 347.43 88.75L348.039 93.7422C348.102 94.0547 348.133 94.2578 348.133 94.3516C348.133 94.4297 348.008 94.4688 347.758 94.4688C347.523 94.4688 347.375 94.4375 347.312 94.375C347.25 94.3125 347.188 94.2109 347.125 94.0703C347.062 93.9141 346.984 93.7422 346.891 93.5547C346.812 93.3672 346.727 93.1797 346.633 92.9922C346.305 92.2734 345.789 91.5625 345.086 90.8594C343.367 89.2031 341.43 88.375 339.273 88.375C337.977 88.375 336.75 88.7969 335.594 89.6406C334.438 90.4844 333.859 91.4844 333.859 92.6406C333.859 93.7812 334.07 94.7734 334.492 95.6172C334.93 96.4609 335.5 97.2422 336.203 97.9609C336.906 98.6797 337.711 99.3672 338.617 100.023C339.523 100.68 340.445 101.344 341.383 102.016C343.867 103.75 345.633 105.234 346.68 106.469C348.32 108.375 349.211 110.516 349.352 112.891C349.352 115.547 348.328 117.672 346.281 119.266C344.25 120.844 341.883 121.633 339.18 121.633C337.445 121.633 336.062 121.453 335.031 121.094C334.016 120.75 333.312 120.5 332.922 120.344C332.531 120.188 332.242 120.109 332.055 120.109C331.883 120.109 331.773 120.117 331.727 120.133L330.578 120.367C330.375 120.367 330.25 120.203 330.203 119.875C329.75 116 329.523 113.945 329.523 113.711C329.523 113.461 329.539 113.297 329.57 113.219C329.617 113.125 329.727 113.078 329.898 113.078C330.336 113.078 330.734 113.703 331.094 114.953C332.734 118.469 335.461 120.227 339.273 120.227C341.023 120.227 342.516 119.695 343.75 118.633C345 117.57 345.625 116.188 345.625 114.484C345.625 111.766 344 109.234 340.75 106.891C339.828 106.234 338.5 105.32 336.766 104.148C335.031 102.977 333.648 101.805 332.617 100.633C331.008 98.8203 330.203 96.8047 330.203 94.5859C330.203 92.3516 331.086 90.5234 332.852 89.1016C334.633 87.6797 336.672 86.9688 338.969 86.9688C340.156 86.9688 341.461 87.1719 342.883 87.5781C344.32 87.9844 345.32 88.2578 345.883 88.3984L347.195 88.2344Z" fill="black" fill-opacity="0.2"/>
<line x1="375.5" y1="38.9931" x2="375.961" y2="138.992" stroke="#713A25" stroke-width="3"/>
</svg>
