<svg width="355" height="46" viewBox="0 0 355 46" fill="none" xmlns="http://www.w3.org/2000/svg">
<path opacity="0.1" d="M14.9167 43.75C15.0417 43.75 15.1042 43.8333 15.1042 44V44.75C15.1042 44.9167 15.0417 45 14.9167 45H0.322998C0.156331 45 0.072998 44.9167 0.072998 44.75V44C0.072998 43.8333 0.156331 43.75 0.322998 43.75C3.73966 43.75 5.59383 42.2812 5.8855 39.3438C5.96883 38.4896 6.05216 37.0729 6.1355 35.0938C6.23966 33.0938 6.52091 28.8125 6.97925 22.25C7.43758 15.6667 7.66675 10.3438 7.66675 6.28125V5.125C7.66675 4.29167 7.18758 3.59375 6.22925 3.03125C5.29175 2.46875 4.60425 2.1875 4.16675 2.1875C3.72925 2.1875 3.5105 2.10417 3.5105 1.9375V1.1875C3.5105 1.02083 3.59383 0.9375 3.7605 0.9375H12.7917C13.1876 1 13.5105 1.22917 13.7605 1.625L28.4167 34.2812C28.5209 34.4271 28.6042 34.5521 28.6667 34.6562C28.7292 34.7604 28.8855 34.8125 29.1355 34.8125C29.3855 34.7917 29.573 34.6042 29.698 34.25L44.198 2.1875C44.6355 1.35417 45.0313 0.9375 45.3855 0.9375H54.4792C54.6459 0.9375 54.7292 1.02083 54.7292 1.1875V1.9375C54.7292 2.10417 54.6772 2.1875 54.573 2.1875C53.948 2.1875 53.1772 2.39583 52.2605 2.8125C50.8647 3.4375 50.1667 4.36458 50.1667 5.59375L52.0417 40.125C52.0834 41.2083 52.6459 42.0833 53.7292 42.75C54.8126 43.4167 56.2292 43.75 57.9792 43.75C58.1459 43.75 58.2292 43.8333 58.2292 44V44.75C58.2292 44.9167 58.1459 45 57.9792 45H40.2292C40.0626 45 39.9792 44.9167 39.9792 44.75V44C39.9792 43.8333 40.0626 43.75 40.2292 43.75C43.9584 43.75 45.823 42.8438 45.823 41.0312L44.1667 11.1875C44.1459 10.9792 44.0834 10.875 43.9792 10.875C43.8959 10.875 43.823 10.9688 43.7605 11.1562L28.2292 44.7812C28.1459 44.9271 27.9063 45 27.5105 45C27.1147 45 26.8855 44.9167 26.823 44.75L11.5105 11.0625C11.3855 10.7708 11.2605 10.625 11.1355 10.625C11.0313 10.625 10.9792 10.8542 10.9792 11.3125C10.9792 12.2708 10.7292 16.7917 10.2292 24.875C9.72925 32.9583 9.47925 38 9.47925 40V41.2812C9.72925 42.4688 10.9063 43.2396 13.0105 43.5938C13.6147 43.6979 14.2501 43.75 14.9167 43.75ZM92.9427 44.75V43.875C92.9427 43.7083 93.0261 43.625 93.1927 43.625H93.8802C94.7552 43.5625 95.6511 43.5312 96.5677 43.5312C97.4844 43.5104 98.3177 43.3958 99.0677 43.1875C100.776 42.6875 101.63 41.4375 101.63 39.4375V6.5C101.63 4.4375 100.411 3.125 97.974 2.5625C97.2865 2.41667 96.5886 2.29167 95.8802 2.1875H95.224C95.0573 2.1875 94.974 2.10417 94.974 1.9375V1.1875C94.974 1.02083 95.0573 0.9375 95.224 0.9375H124.943C125.318 0.9375 125.589 1.01042 125.755 1.15625C125.922 1.28125 126.026 1.57292 126.068 2.03125L126.63 11.0938C126.63 11.3021 126.474 11.4062 126.161 11.4062C125.849 11.4062 125.62 11.3125 125.474 11.125C125.349 10.9167 125.182 10.1562 124.974 8.84375C124.786 7.53125 124.432 6.4375 123.911 5.5625C123.391 4.6875 122.474 4.13542 121.161 3.90625H108.13C107.859 3.90625 107.724 4.04167 107.724 4.3125V20.4688C107.724 20.6771 107.828 20.7812 108.036 20.7812H118.849C121.641 20.7812 123.036 19.1562 123.036 15.9062C123.036 15.7396 123.12 15.6562 123.286 15.6562H124.036C124.203 15.6562 124.286 15.7396 124.286 15.9062V29.2812C124.286 29.4479 124.203 29.5312 124.036 29.5312H123.286C123.12 29.5312 123.036 29.4479 123.036 29.2812C123.036 26.1979 122.141 24.4167 120.349 23.9375C119.849 23.8125 119.318 23.75 118.755 23.75H108.036C107.828 23.75 107.724 23.8542 107.724 24.0625V39.2812C107.724 40.8438 108.443 41.7292 109.88 41.9375C110.297 42 110.734 42.0312 111.193 42.0312H121.599C123.745 42.0312 125.411 41.0833 126.599 39.1875C127.453 37.8333 127.974 36.2812 128.161 34.5312C128.224 33.9479 128.536 33.6562 129.099 33.6562C129.349 33.6562 129.474 33.7917 129.474 34.0625L128.443 44.5625C128.318 44.8542 128.172 45 128.005 45H93.1927C93.0261 45 92.9427 44.9167 92.9427 44.75ZM217.839 45C217.672 45 217.589 44.9167 217.589 44.75V44C217.589 43.8333 217.693 43.75 217.901 43.75H218.62C219.766 43.75 220.547 43.6458 220.964 43.4375C222.505 42.6875 223.276 40.625 223.276 37.25V4.78125C223.276 3.38542 221.922 2.55208 219.214 2.28125C218.609 2.21875 218.182 2.1875 217.932 2.1875C217.703 2.1875 217.589 2.10417 217.589 1.9375V1.1875C217.589 1.02083 217.672 0.9375 217.839 0.9375H229.276L258.932 33.7188C259.036 33.8229 259.109 33.9062 259.151 33.9688C259.193 34.0104 259.255 34.0312 259.339 34.0312C259.443 34.0312 259.495 33.9375 259.495 33.75V12.2188C259.495 8.07292 259.151 5.36458 258.464 4.09375C257.776 2.82292 256.391 2.1875 254.307 2.1875H252.714C252.547 2.1875 252.464 2.10417 252.464 1.9375V1.1875C252.464 1.02083 252.547 0.9375 252.714 0.9375H268.964C269.13 0.9375 269.214 1.02083 269.214 1.1875V1.9375C269.214 2.10417 268.901 2.1875 268.276 2.1875C267.672 2.1875 266.661 2.54167 265.245 3.25C263.849 3.95833 263.151 4.83333 263.151 5.875V44.0938C263.151 44.5521 263.089 44.875 262.964 45.0625C262.839 45.2708 262.536 45.375 262.057 45.375C261.599 45.375 261.255 45.2812 261.026 45.0938C260.797 44.9062 260.526 44.6354 260.214 44.2812L227.995 8.5625C227.786 8.35417 227.599 8.25 227.432 8.25C227.328 8.25 227.276 8.35417 227.276 8.5625V39.75C227.276 41.6458 228.776 42.8958 231.776 43.5C232.609 43.6667 233.245 43.75 233.682 43.75C234.12 43.75 234.339 43.8333 234.339 44V44.75C234.339 44.9167 234.255 45 234.089 45H217.839ZM321.427 2.1875C317.927 2.1875 316.177 3.58333 316.177 6.375V28.75C316.177 32.875 317.542 36.25 320.271 38.875C323 41.4792 326.5 42.7812 330.771 42.7812C335.208 42.7812 338.844 41.5938 341.677 39.2188C344.531 36.8229 345.958 33.5104 345.958 29.2812V9.40625C345.958 7.42708 345.781 6.05208 345.427 5.28125C344.531 3.21875 342.51 2.1875 339.365 2.1875C339.198 2.1875 339.115 2.10417 339.115 1.9375V1.1875C339.115 1.02083 339.198 0.9375 339.365 0.9375H354.74C354.906 0.9375 354.99 1.02083 354.99 1.1875V1.9375C354.99 2.10417 354.76 2.1875 354.302 2.1875C351.573 2.1875 349.906 3.25 349.302 5.375C349.198 5.72917 349.146 6.0625 349.146 6.375V26.8438C349.146 35.9896 345.646 41.875 338.646 44.5C336.292 45.3958 333.948 45.8438 331.615 45.8438C323.26 45.8438 317.104 43.6562 313.146 39.2812C311.104 37.0312 310.083 34.25 310.083 30.9375V5.9375C310.083 4.16667 309.01 3 306.865 2.4375C306.24 2.27083 305.708 2.1875 305.271 2.1875C304.833 2.1875 304.615 2.10417 304.615 1.9375V1.1875C304.615 1.02083 304.687 0.9375 304.833 0.9375H321.771C321.937 0.9375 322.021 1.02083 322.021 1.1875V1.9375C322.021 2.10417 321.823 2.1875 321.427 2.1875Z" fill="#C1B098"/>
</svg>
