<svg width="426" height="47" viewBox="0 0 426 47" fill="none" xmlns="http://www.w3.org/2000/svg">
<g clip-path="url(#clip0_28_284)">
<path d="M135.768 -2H290.184V13C290.184 22.3888 282.572 30 273.184 30H152.768C143.379 30 135.768 22.3888 135.768 13V-2Z" fill="black"/>
<path d="M136 -2H131C131 -2 131 -2 131 -2C133.651 -2 135.799 0.148747 135.799 2.79934C135.799 2.86656 135.798 2.93345 135.795 3H136V-2Z" fill="black"/>
<path d="M290 -2H295C295 -2 295 -2 295 -2C292.349 -2 290.201 0.148747 290.201 2.79934C290.201 2.86656 290.202 2.93345 290.205 3H290V-2Z" fill="black"/>
<path d="M47.8786 19.7231C45.2805 19.7231 43.4294 21.4995 43.4294 23.9316V23.9482C43.4294 26.2227 45.0397 27.8994 47.3391 27.8994C48.9826 27.8994 50.0285 27.061 50.4684 26.1147H50.6345C50.6345 26.2061 50.6262 26.2974 50.6262 26.3887C50.5349 28.6797 49.7297 30.5391 47.8288 30.5391C46.7746 30.5391 46.0358 29.9912 45.7204 29.1528L45.6955 29.0698H43.5871L43.6037 29.1611C43.9855 30.9956 45.6291 32.2988 47.8288 32.2988C50.842 32.2988 52.6599 29.9082 52.6599 25.874V25.8574C52.6599 21.541 50.4352 19.7231 47.8786 19.7231ZM47.8703 26.2559C46.509 26.2559 45.5212 25.2598 45.5212 23.8735V23.8569C45.5212 22.5205 46.5754 21.4663 47.8952 21.4663C49.2233 21.4663 50.2609 22.5371 50.2609 23.9067V23.9233C50.2609 25.2764 49.2233 26.2559 47.8703 26.2559ZM56.0204 24.2388C56.7841 24.2388 57.3402 23.6577 57.3402 22.9272C57.3402 22.1885 56.7841 21.6157 56.0204 21.6157C55.265 21.6157 54.7006 22.1885 54.7006 22.9272C54.7006 23.6577 55.265 24.2388 56.0204 24.2388ZM56.0204 30.3979C56.7841 30.3979 57.3402 29.8252 57.3402 29.0864C57.3402 28.3477 56.7841 27.7749 56.0204 27.7749C55.265 27.7749 54.7006 28.3477 54.7006 29.0864C54.7006 29.8252 55.265 30.3979 56.0204 30.3979ZM65.1915 32H67.2418V29.7007H68.8522V27.9326H67.2418V20.022H64.212C62.5851 22.4956 60.8834 25.2515 59.3312 27.9492V29.7007H65.1915V32ZM61.3233 27.9824V27.8579C62.4855 25.8242 63.8717 23.6079 65.1002 21.7319H65.2247V27.9824H61.3233ZM73.408 32H75.5496V20.022H73.4163L70.2869 22.2217V24.2388L73.2669 22.1304H73.408V32Z" fill="#010101"/>
<path opacity="0.35" d="M366.528 23C366.528 21.0822 368.082 19.5275 370 19.5275H387C388.918 19.5275 390.472 21.0822 390.472 23V28C390.472 29.9178 388.918 31.4725 387 31.4725H370C368.082 31.4725 366.528 29.9178 366.528 28V23Z" stroke="black" stroke-width="1.05509"/>
<path opacity="0.4" d="M392 24V28.2203C392.849 27.8629 393.401 27.0314 393.401 26.1102C393.401 25.1889 392.849 24.3574 392 24Z" fill="black"/>
<path d="M368 23C368 21.8954 368.895 21 370 21H387C388.105 21 389 21.8954 389 23V28C389 29.1046 388.105 30 387 30H370C368.895 30 368 29.1046 368 28V23Z" fill="black"/>
<path fill-rule="evenodd" clip-rule="evenodd" d="M350.5 22.5875C352.967 22.5876 355.339 23.5551 357.127 25.2898C357.261 25.4237 357.477 25.4221 357.609 25.286L358.896 23.9605C358.963 23.8915 359.001 23.798 359 23.7008C358.999 23.6035 358.961 23.5105 358.893 23.4423C354.201 18.8526 346.799 18.8526 342.107 23.4423C342.039 23.5105 342.001 23.6034 342 23.7007C341.999 23.7979 342.037 23.8914 342.104 23.9605L343.391 25.286C343.523 25.4223 343.739 25.424 343.873 25.2898C345.661 23.5549 348.034 22.5875 350.5 22.5875ZM350.536 26.6724C351.891 26.6723 353.198 27.1864 354.203 28.115C354.338 28.2467 354.552 28.2439 354.685 28.1085L355.97 26.7829C356.038 26.7134 356.075 26.6191 356.074 26.5211C356.073 26.4231 356.034 26.3295 355.965 26.2614C352.906 23.3568 348.169 23.3568 345.109 26.2614C345.04 26.3295 345.001 26.4231 345 26.5212C344.999 26.6192 345.037 26.7135 345.105 26.7829L346.39 28.1085C346.522 28.2439 346.736 28.2467 346.872 28.115C347.876 27.1871 349.182 26.6729 350.536 26.6724ZM353.15 29.3427C353.152 29.441 353.114 29.5357 353.045 29.6046L350.822 31.8948C350.756 31.9621 350.668 32 350.575 32C350.482 32 350.393 31.9621 350.328 31.8948L348.105 29.6046C348.036 29.5357 347.998 29.4409 348 29.3426C348.002 29.2443 348.044 29.1512 348.115 29.0853C349.535 27.8595 351.615 27.8595 353.035 29.0853C353.106 29.1513 353.148 29.2444 353.15 29.3427Z" fill="black"/>
<path d="M326 23C326 22.4477 326.448 22 327 22H328C328.552 22 329 22.4477 329 23V31C329 31.5523 328.552 32 328 32H327C326.448 32 326 31.5523 326 31V23Z" fill="black"/>
<path d="M331 21C331 20.4477 331.448 20 332 20H333C333.552 20 334 20.4477 334 21V31C334 31.5523 333.552 32 333 32H332C331.448 32 331 31.5523 331 31V21Z" fill="black"/>
<path d="M321 26.5C321 25.9477 321.448 25.5 322 25.5H323C323.552 25.5 324 25.9477 324 26.5V31C324 31.5523 323.552 32 323 32H322C321.448 32 321 31.5523 321 31V26.5Z" fill="black"/>
<path d="M316 29C316 28.4477 316.448 28 317 28H318C318.552 28 319 28.4477 319 29V31C319 31.5523 318.552 32 318 32H317C316.448 32 316 31.5523 316 31V29Z" fill="black"/>
</g>
<defs>
<clipPath id="clip0_28_284">
<rect width="426" height="47" fill="white"/>
</clipPath>
</defs>
</svg>
