<svg width="381" height="198" viewBox="0 0 381 198" fill="none" xmlns="http://www.w3.org/2000/svg">
<path d="M48.1562 75.3125C48.3646 75.3125 48.4688 75.5417 48.4688 76L49.2812 82.6562C49.3646 83.0729 49.4062 83.3438 49.4062 83.4688C49.4062 83.5729 49.2396 83.625 48.9062 83.625C48.5938 83.625 48.3958 83.5833 48.3125 83.5C48.2292 83.4167 48.1458 83.2812 48.0625 83.0938C47.9792 82.8854 47.875 82.6562 47.75 82.4062C47.6458 82.1562 47.5312 81.9062 47.4062 81.6562C46.9688 80.6979 46.2812 79.75 45.3438 78.8125C43.0521 76.6042 40.4688 75.5 37.5938 75.5C35.8646 75.5 34.2292 76.0625 32.6875 77.1875C31.1458 78.3125 30.375 79.6458 30.375 81.1875C30.375 82.7083 30.6562 84.0312 31.2188 85.1562C31.8021 86.2812 32.5625 87.3229 33.5 88.2812C34.4375 89.2396 35.5104 90.1562 36.7188 91.0312C37.9271 91.9062 39.1562 92.7917 40.4062 93.6875C43.7188 96 46.0729 97.9792 47.4688 99.625C49.6562 102.167 50.8438 105.021 51.0312 108.188C51.0312 111.729 49.6667 114.562 46.9375 116.688C44.2292 118.792 41.0729 119.844 37.4688 119.844C35.1562 119.844 33.3125 119.604 31.9375 119.125C30.5833 118.667 29.6458 118.333 29.125 118.125C28.6042 117.917 28.2188 117.812 27.9688 117.812C27.7396 117.812 27.5938 117.823 27.5312 117.844L26 118.156C25.7292 118.156 25.5625 117.938 25.5 117.5C24.8958 112.333 24.5938 109.594 24.5938 109.281C24.5938 108.948 24.6146 108.729 24.6562 108.625C24.7188 108.5 24.8646 108.438 25.0938 108.438C25.6771 108.438 26.2083 109.271 26.6875 110.938C28.875 115.625 32.5104 117.969 37.5938 117.969C39.9271 117.969 41.9167 117.26 43.5625 115.844C45.2292 114.427 46.0625 112.583 46.0625 110.312C46.0625 106.688 43.8958 103.312 39.5625 100.188C38.3333 99.3125 36.5625 98.0938 34.25 96.5312C31.9375 94.9688 30.0938 93.4062 28.7188 91.8438C26.5729 89.4271 25.5 86.7396 25.5 83.7812C25.5 80.8021 26.6771 78.3646 29.0312 76.4688C31.4062 74.5729 34.125 73.625 37.1875 73.625C38.7708 73.625 40.5104 73.8958 42.4062 74.4375C44.3229 74.9792 45.6562 75.3438 46.4062 75.5312L48.1562 75.3125ZM96.3125 118C96.3125 117.833 96.4062 117.75 96.5938 117.75H97.4688C99.5104 117.75 101.146 117.312 102.375 116.438C103.625 115.562 104.25 114.542 104.25 113.375V78.7812C104.25 78.3438 104.156 78.1042 103.969 78.0625C103.802 78 103.594 77.9479 103.344 77.9062H91.3438C89.4062 78.3229 88.1354 79.8125 87.5312 82.375C87.1979 83.75 87 84.6354 86.9375 85.0312C86.875 85.4062 86.7604 85.5938 86.5938 85.5938H86.0312C85.9062 85.5938 85.8438 85.5521 85.8438 85.4688V84.4375L87 74.6875C87.125 74.0417 87.3333 73.7188 87.625 73.7188C87.9167 73.7188 88.2292 73.9271 88.5625 74.3438C88.8958 74.7396 89.5312 74.9375 90.4688 74.9375H124.156C125.052 74.9375 125.594 74.8333 125.781 74.625C125.969 74.4167 126.146 74.2188 126.312 74.0312C126.479 73.8229 126.688 73.7188 126.938 73.7188C127.208 73.7188 127.375 73.8229 127.438 74.0312C127.521 74.2396 127.583 74.4583 127.625 74.6875L128.781 84.4375V85.4688C128.781 85.5521 128.719 85.5938 128.594 85.5938H128.031C127.865 85.5938 127.75 85.4375 127.688 85.125C127.354 83.0417 126.875 81.3958 126.25 80.1875C125.625 78.9583 124.635 78.1979 123.281 77.9062H111.25C111 77.9479 110.781 78 110.594 78.0625C110.427 78.1042 110.344 78.3438 110.344 78.7812V113.375C110.344 114.542 110.958 115.562 112.188 116.438C113.438 117.312 115.083 117.75 117.125 117.75H118.031C118.198 117.75 118.281 117.833 118.281 118V118.75C118.281 118.917 118.198 119 118.031 119H96.5625C96.3958 119 96.3125 118.917 96.3125 118.75V118ZM200.844 116.312C199.031 117.417 197.052 118.281 194.906 118.906C192.76 119.531 190.854 119.844 189.188 119.844C185.771 119.844 182.51 119.292 179.406 118.188C175.156 116.646 171.74 114.365 169.156 111.344C165.865 107.49 164.219 102.604 164.219 96.6875C164.219 92.4167 165.312 88.5312 167.5 85.0312C169.688 81.5104 172.708 78.7292 176.562 76.6875C180.438 74.6458 184.594 73.625 189.031 73.625C193.49 73.625 197.479 74.6146 201 76.5938C204.521 78.5729 207.344 81.2917 209.469 84.75C211.594 88.2083 212.656 91.9583 212.656 96C212.656 100.021 211.604 103.854 209.5 107.5C207.396 111.125 204.51 114.062 200.844 116.312ZM170.781 95.6875C170.781 99.1458 171.542 102.583 173.062 106C174.604 109.396 176.802 112.167 179.656 114.312C182.51 116.458 185.812 117.531 189.562 117.531C194.896 117.531 199.052 115.49 202.031 111.406C204.719 107.719 206.062 103.01 206.062 97.2812C206.062 91.5521 204.417 86.6146 201.125 82.4688C199.521 80.4479 197.552 78.8333 195.219 77.625C192.906 76.3958 190.562 75.7812 188.188 75.7812C185.833 75.7812 183.896 76.0417 182.375 76.5625C180.875 77.0833 179.51 77.8021 178.281 78.7188C177.052 79.6146 175.969 80.6875 175.031 81.9375C174.094 83.1875 173.312 84.5417 172.688 86C171.417 89 170.781 92.2292 170.781 95.6875ZM247.719 119C247.552 119 247.469 118.792 247.469 118.375V118C247.469 117.833 247.552 117.75 247.719 117.75C247.844 117.75 248.042 117.729 248.312 117.688C248.583 117.646 248.865 117.604 249.156 117.562C249.448 117.521 249.719 117.479 249.969 117.438C250.219 117.375 250.396 117.333 250.5 117.312C252.625 116.833 253.688 115.625 253.688 113.688V80.6875C253.688 78.8958 252.969 77.625 251.531 76.875C250.677 76.4167 249.76 76.1875 248.781 76.1875H247.594C247.427 76.1875 247.344 76.1042 247.344 75.9375V75.1875C247.344 75.0208 247.469 74.9375 247.719 74.9375L264.875 74.4688H268.031C271.719 74.7188 274.802 76.0625 277.281 78.5C279.781 80.9167 281.031 83.9062 281.031 87.4688C281.031 91.0104 279.552 93.7708 276.594 95.75C275.677 96.3542 274.688 96.8958 273.625 97.375L283.094 112.844C284.74 115.552 286.948 117.458 289.719 118.562C289.948 118.625 290.062 118.771 290.062 119C290.062 119.521 289.719 119.781 289.031 119.781C284.344 119.781 280.615 118 277.844 114.438C277.24 113.646 276.635 112.76 276.031 111.781L267.938 99.0938L260.5 98.75H260.25C259.938 98.75 259.781 98.8958 259.781 99.1875V113.594C259.781 114.74 260.104 115.594 260.75 116.156C261.396 116.719 262.51 117.104 264.094 117.312C264.51 117.375 265.021 117.469 265.625 117.594C266.229 117.698 266.635 117.75 266.844 117.75C267.073 117.75 267.188 117.833 267.188 118V118.75C267.188 118.917 267.104 119 266.938 119H247.719ZM262.312 76.125C262.062 76.125 261.792 76.1354 261.5 76.1562C261.229 76.1562 260.875 76.1667 260.438 76.1875C260 76.1875 259.781 76.3542 259.781 76.6875V95.625L259.844 96.5625C259.906 97 260.104 97.2292 260.438 97.25L263.625 97.4375C269.479 97.4375 273.01 95.3542 274.219 91.1875C274.615 89.875 274.812 88.375 274.812 86.6875C274.812 83.3958 273.781 80.8021 271.719 78.9062C269.677 77.0104 267.062 76.0625 263.875 76.0625C263.583 76.0625 263.312 76.0729 263.062 76.0938C262.812 76.0938 262.562 76.1042 262.312 76.125ZM336.906 119C336.198 119 335.844 118.792 335.844 118.375V118.062C335.844 117.729 336.146 117.531 336.75 117.469C337.375 117.385 337.781 117.333 337.969 117.312C339.552 117.146 340.667 116.76 341.312 116.156C341.958 115.531 342.281 114.604 342.281 113.375V103.031C342.281 102.885 342.25 102.729 342.188 102.562L329.406 82.1875C327.406 79 325.427 77.1667 323.469 76.6875C323.365 76.6667 323.177 76.625 322.906 76.5625C322.635 76.5 322.031 76.3958 321.094 76.25C320.76 76.1875 320.594 75.9583 320.594 75.5625C320.594 75.1458 320.75 74.9375 321.062 74.9375H338.938C339.292 74.9375 339.469 75.1458 339.469 75.5625C339.469 75.9792 339.292 76.1875 338.938 76.1875C337.542 76.3333 336.615 76.4792 336.156 76.625C335.115 77 334.594 77.6667 334.594 78.625C334.594 79.125 334.719 79.5729 334.969 79.9688L345.531 96.8438C345.76 97.1771 345.896 97.3958 345.938 97.5C346 97.5833 346.115 97.625 346.281 97.625C346.469 97.625 346.75 97.3229 347.125 96.7188L355.562 82.375C355.812 81.875 356.094 81.3438 356.406 80.7812C356.74 80.1979 356.906 79.6042 356.906 79C356.906 77.4792 355.865 76.5833 353.781 76.3125C353.031 76.2083 352.625 76.0938 352.562 75.9688C352.5 75.8438 352.469 75.6875 352.469 75.5C352.469 75.125 352.646 74.9375 353 74.9375H367.594C367.885 74.9375 368.031 75.0833 368.031 75.375C368.031 75.6667 367.979 75.8646 367.875 75.9688C367.792 76.0729 367.667 76.1562 367.5 76.2188C367.354 76.2604 367.188 76.3021 367 76.3438C366.812 76.3646 366.406 76.4479 365.781 76.5938C364.323 76.9479 362.74 78.1042 361.031 80.0625C360.844 80.2917 360.74 80.4271 360.719 80.4688L348.375 101.719V113.375C348.375 114.5 348.688 115.385 349.312 116.031C349.958 116.677 351.031 117.104 352.531 117.312C354.052 117.5 354.812 117.74 354.812 118.031V118.375C354.812 118.792 354.458 119 353.75 119H336.906Z" fill="black" fill-opacity="0.2"/>
<line x1="1.49998" y1="23.9931" x2="2.19108" y2="173.992" stroke="#713A25" stroke-width="3"/>
</svg>
